<?xml version="1.0" encoding="UTF-8"?>
<!DOCTYPE svg PUBLIC "-//W3C//DTD SVG 1.1//EN" "http://www.w3.org/Graphics/SVG/1.1/DTD/svg11.dtd">
<!-- Creator: CorelDRAW X7 -->
<svg xmlns="http://www.w3.org/2000/svg" xml:space="preserve" width="21.6746mm" height="21.6746mm" version="1.1" style="shape-rendering:geometricPrecision; text-rendering:geometricPrecision; image-rendering:optimizeQuality; fill-rule:evenodd; clip-rule:evenodd"
viewBox="0 0 2167 2167"
 xmlns:xlink="http://www.w3.org/1999/xlink">
 <defs>
  <style type="text/css">
   <![CDATA[
    .fil2 {fill:#FEFEFE}
    .fil0 {fill:url(#id0)}
    .fil1 {fill:url(#id1)}
   ]]>
  </style>
  <linearGradient id="id0" gradientUnits="userSpaceOnUse" x1="2036.32" y1="2080.83" x2="131.13" y2="86.62">
   <stop offset="0" style="stop-opacity:1; stop-color:#015A96"/>
   <stop offset="1" style="stop-opacity:1; stop-color:#8CBDE6"/>
  </linearGradient>
  <linearGradient id="id1" gradientUnits="userSpaceOnUse" x1="1661.02" y1="2049.59" x2="62.7" y2="376.61">
   <stop offset="0" style="stop-opacity:1; stop-color:#044E80"/>
   <stop offset="1" style="stop-opacity:1; stop-color:#65A8DC"/>
  </linearGradient>
 </defs>
 <g id="Layer_x0020_1">
  <metadata id="CorelCorpID_0Corel-Layer"/>
  <g id="_867754960">
   <rect class="fil0" width="2167" height="2167" rx="316" ry="316"/>
   <path class="fil1" d="M606 2167l-290 0c-174,0 -316,-142 -316,-316l0 -868 656 -561c153,-137 370,-198 584,-144 288,73 484,330 484,614 0,3 -1,4 -2,5l-712 608 -7 29 -61 244 -33 131 -303 258zm964 -1276l0 -20c0,7 0,13 0,20zm0 -20l-2 -20c1,7 1,13 2,20zm-2 -20l-2 -20c1,7 1,13 2,20zm-2 -20l-3 -19c1,6 2,13 3,19zm-3 -19l-4 -20c1,7 2,13 4,20zm-4 -20l-5 -19c2,7 3,13 5,19zm-5 -19l-6 -19c2,7 4,13 6,19zm-6 -19l-6 -18c2,6 4,12 6,18zm-6 -18l-7 -19c3,6 5,12 7,19zm-7 -19l-7 -18c2,6 5,12 7,18zm-7 -18l-9 -17c3,5 6,11 9,17zm-9 -17l-9 -18c3,6 6,12 9,18zm-9 -18l-10 -17c4,6 7,12 10,17zm-10 -17l-10 -16c3,5 7,11 10,16zm-10 -16l-11 -16c4,5 7,10 11,16zm-11 -16l-12 -16c4,5 8,10 12,16zm-12 -16l-12 -15c4,5 8,10 12,15zm-12 -15l-13 -15c4,5 8,10 13,15zm-13 -15l-14 -14c5,5 9,9 14,14zm-14 -14l-14 -14c5,5 9,9 14,14zm-14 -14l-15 -13c5,4 10,9 15,13zm-15 -13l-15 -12c5,4 10,8 15,12zm-15 -12l-16 -12c5,4 11,8 16,12zm-16 -12l-16 -12c5,4 11,8 16,12zm-16 -12l-17 -10c5,3 11,7 17,10zm-17 -10l-18 -10c6,3 12,6 18,10zm-18 -10l-18 -10c6,3 12,7 18,10zm-18 -10l-18 -8c6,3 12,6 18,8zm-18 -8l-19 -8c6,3 13,5 19,8zm-19 -8l-20 -7c7,2 13,5 20,7zm-20 -7l-19 -6c6,2 13,4 19,6zm-19 -6l-21 -6c7,2 14,4 21,6zm-21 -6l-24 -5c8,1 16,3 24,5zm-24 -5l-24 -5c8,1 16,3 24,5zm-24 -5l-25 -3c8,1 16,2 25,3zm-25 -3l-24 -1c8,0 16,1 24,1zm-24 -1l-24 -1c8,0 16,0 24,1zm-24 -1l-24 1c8,-1 16,-1 24,-1zm-24 1l-24 2c8,-1 16,-2 24,-2zm-24 2l-24 3c8,-1 16,-2 24,-3zm-24 3l-23 4c8,-1 16,-3 23,-4zm-23 4l-23 5c8,-2 15,-3 23,-5zm-23 5l-22 7c7,-3 15,-5 22,-7zm-22 7l-23 7c8,-2 15,-5 23,-7zm-23 7l-21 9c7,-3 14,-6 21,-9zm-21 9l-22 9c7,-3 14,-6 22,-9zm-22 9l-21 11c7,-4 14,-7 21,-11zm-21 11l-20 11c7,-4 14,-8 20,-11zm-20 11l-20 13c7,-5 13,-9 20,-13zm-20 13l-19 13c6,-4 13,-9 19,-13zm-19 13l-18 14c6,-4 12,-9 18,-14zm-18 14l-18 16c6,-6 12,-11 18,-16z"/>
   <path class="fil2" d="M1240 278c-343,-86 -691,122 -777,465 -80,317 93,639 392,753l-1 1 55 412 33 -131 61 -244 24 -97 6 -23 8 -31c-25,-2 -51,-6 -76,-12 -260,-66 -419,-330 -353,-591 66,-260 330,-419 590,-353 219,55 365,249 368,464 0,4 1,7 6,7l142 0c4,0 6,0 6,-6 0,-284 -196,-541 -484,-614zm-153 212c-226,0 -408,183 -408,408 0,225 182,408 408,408 225,0 408,-183 408,-408 0,-225 -183,-408 -408,-408zm56 309l126 73 0 1c4,2 8,6 11,10 8,14 3,32 -11,41l-126 73 -124 71c-5,4 -11,6 -18,6 -16,0 -29,-14 -29,-30l0 -146 0 -146 0 0c0,-5 1,-10 4,-15 8,-14 26,-19 40,-11l125 73c1,0 1,0 2,0z"/>
  </g>
 </g>
</svg>
