<?xml version="1.0" encoding="UTF-8"?>
<!DOCTYPE svg PUBLIC "-//W3C//DTD SVG 1.1//EN" "http://www.w3.org/Graphics/SVG/1.1/DTD/svg11.dtd">
<!-- Creator: CorelDRAW X7 -->
<svg xmlns="http://www.w3.org/2000/svg" xml:space="preserve" width="4.0638mm" height="4.0638mm" version="1.1" style="shape-rendering:geometricPrecision; text-rendering:geometricPrecision; image-rendering:optimizeQuality; fill-rule:evenodd; clip-rule:evenodd"
viewBox="0 0 406 406"
 xmlns:xlink="http://www.w3.org/1999/xlink">
 <defs>
  <style type="text/css">
   <![CDATA[
    .fil2 {fill:#FEFEFE}
    .fil0 {fill:url(#id0)}
    .fil1 {fill:url(#id1)}
   ]]>
  </style>
  <linearGradient id="id0" gradientUnits="userSpaceOnUse" x1="381.8" y1="390.15" x2="24.58" y2="16.23">
   <stop offset="0" style="stop-opacity:1; stop-color:#015A96"/>
   <stop offset="1" style="stop-opacity:1; stop-color:#8CBDE6"/>
  </linearGradient>
  <linearGradient id="id1" gradientUnits="userSpaceOnUse" x1="311.43" y1="384.29" x2="11.75" y2="70.6">
   <stop offset="0" style="stop-opacity:1; stop-color:#044E80"/>
   <stop offset="1" style="stop-opacity:1; stop-color:#65A8DC"/>
  </linearGradient>
 </defs>
 <g id="Layer_x0020_1">
  <metadata id="CorelCorpID_0Corel-Layer"/>
  <g id="_878074176">
   <rect class="fil0" width="406" height="406" rx="59" ry="59"/>
   <path class="fil1" d="M114 406l-55 0c-32,0 -59,-26 -59,-59l0 -163 123 -105c29,-25 69,-37 109,-27 55,14 91,62 91,115 0,1 0,1 0,1l-134 114 -1 6 -11 45 -7 25 -56 48zm180 -239l0 -4c0,2 0,3 0,4zm0 -4l0 -3c0,1 0,2 0,3zm0 -3l0 -4c0,1 0,2 0,4zm0 -4l-1 -4c0,1 0,3 1,4zm-1 -4l-1 -3c0,1 1,2 1,3zm-1 -3l-1 -4c1,1 1,2 1,4zm-1 -4l-1 -4c1,2 1,3 1,4zm-1 -4l-1 -3c1,1 1,2 1,3zm-1 -3l-1 -4c0,2 1,3 1,4zm-1 -4l-2 -3c1,1 1,2 2,3zm-2 -3l-1 -3c0,1 1,2 1,3zm-1 -3l-2 -3c1,1 1,2 2,3zm-2 -3l-2 -4c1,1 2,2 2,4zm-2 -4l-2 -3c1,1 2,2 2,3zm-2 -3l-2 -3c1,1 2,2 2,3zm-2 -3l-2 -3c1,1 2,2 2,3zm-2 -3l-2 -3c1,1 1,2 2,3zm-2 -3l-3 -2c1,1 2,2 3,2zm-3 -2l-2 -3c1,1 1,2 2,3zm-2 -3l-3 -3c1,1 2,2 3,3zm-3 -3l-3 -2c1,1 2,2 3,2zm-3 -2l-3 -2c1,0 2,1 3,2zm-3 -2l-3 -3c1,1 2,2 3,3zm-3 -3l-3 -2c1,1 2,2 3,2zm-3 -2l-3 -2c1,1 2,2 3,2zm-3 -2l-3 -2c1,1 2,2 3,2zm-3 -2l-3 -1c1,0 2,1 3,1zm-3 -1l-4 -2c1,1 2,1 4,2zm-4 -2l-3 -1c1,0 2,1 3,1zm-3 -1l-4 -2c1,1 2,1 4,2zm-4 -2l-4 -1c1,0 3,1 4,1zm-4 -1l-4 -1c2,0 3,1 4,1zm-4 -1l-4 -1c1,0 3,1 4,1zm-4 -1l-5 -1c2,0 3,1 5,1zm-5 -1l-4 0c1,0 3,0 4,0zm-4 0l-5 -1c2,0 3,1 5,1zm-5 -1l-4 0c1,0 3,0 4,0zm-4 0l-5 0c2,0 3,0 5,0zm-5 0l-4 1c1,0 3,0 4,-1zm-4 1l-5 0c2,0 3,0 5,0zm-5 0l-4 1c1,0 3,0 4,-1zm-4 1l-4 1c1,0 2,-1 4,-1zm-4 1l-5 1c2,0 3,-1 5,-1zm-5 1l-4 2c2,-1 3,-1 4,-2zm-4 2l-4 1c1,0 3,-1 4,-1zm-4 1l-4 2c1,-1 3,-1 4,-2zm-4 2l-4 2c1,-1 3,-1 4,-2zm-4 2l-4 2c2,-1 3,-1 4,-2zm-4 2l-3 3c1,-1 2,-2 3,-3zm-3 3l-4 2c1,-1 2,-2 4,-2zm-4 2l-3 3c1,-1 2,-2 3,-3zm-3 3l-4 3c1,-1 2,-2 4,-3z"/>
   <path class="fil2" d="M232 52c-64,-16 -129,23 -145,87 -15,60 17,120 73,142l0 0 10 77 7 -25 11 -45 5 -19 1 -4 1 -6c-5,0 -9,-1 -14,-2 -49,-12 -79,-62 -66,-111 12,-49 62,-78 110,-66 41,10 69,47 69,87 0,1 1,1 1,1l27 0c1,0 1,0 1,-1 0,-53 -36,-101 -91,-115zm-28 40c-42,0 -77,34 -77,76 0,43 35,77 77,77 42,0 76,-34 76,-77 0,-42 -34,-76 -76,-76zm10 58l24 14 0 0c1,0 1,1 2,2 1,2 1,6 -2,7l-24 14 -23 13c-1,1 -2,1 -3,1 -3,0 -6,-2 -6,-5l0 -28 0 -27 0 0c0,-1 0,-2 1,-3 1,-2 5,-3 8,-2l23 14c0,0 0,0 0,0z"/>
  </g>
 </g>
</svg>
