<?xml version="1.0" encoding="UTF-8"?>
<!DOCTYPE svg PUBLIC "-//W3C//DTD SVG 1.1//EN" "http://www.w3.org/Graphics/SVG/1.1/DTD/svg11.dtd">
<!-- Creator: CorelDRAW X7 -->
<svg xmlns="http://www.w3.org/2000/svg" xml:space="preserve" width="43.3492mm" height="14.0546mm" version="1.1" style="shape-rendering:geometricPrecision; text-rendering:geometricPrecision; image-rendering:optimizeQuality; fill-rule:evenodd; clip-rule:evenodd"
viewBox="0 0 4335 1405"
 xmlns:xlink="http://www.w3.org/1999/xlink">
 <defs>
  <style type="text/css">
   <![CDATA[
    .fil2 {fill:#FEFEFE}
    .fil3 {fill:#497EB4;fill-rule:nonzero}
    .fil0 {fill:url(#id0)}
    .fil1 {fill:url(#id1)}
   ]]>
  </style>
  <linearGradient id="id0" gradientUnits="userSpaceOnUse" x1="1321.5" y1="1349.29" x2="86.11" y2="56.17">
   <stop offset="0" style="stop-opacity:1; stop-color:#015A96"/>
   <stop offset="1" style="stop-opacity:1; stop-color:#8CBDE6"/>
  </linearGradient>
  <linearGradient id="id1" gradientUnits="userSpaceOnUse" x1="1078.15" y1="1329.03" x2="41.74" y2="244.21">
   <stop offset="0" style="stop-opacity:1; stop-color:#044E80"/>
   <stop offset="1" style="stop-opacity:1; stop-color:#65A8DC"/>
  </linearGradient>
 </defs>
 <g id="Layer_x0020_1">
  <metadata id="CorelCorpID_0Corel-Layer"/>
  <g id="_783781648">
   <g>
    <rect class="fil0" x="1" width="1405" height="1405" rx="205" ry="205"/>
    <path class="fil1" d="M394 1405l-188 0c-113,0 -205,-92 -205,-205l0 -563 426 -363c99,-89 239,-129 378,-94 187,47 314,214 314,398 0,2 0,3 -1,4l-462 394 -4 18 -40 159 -22 85 -196 167zm625 -827l0 -13c0,4 0,8 0,13zm0 -13l-1 -13c0,4 1,8 1,13zm-1 -13l-2 -13c1,4 1,9 2,13zm-2 -13l-2 -13c1,5 2,9 2,13zm-2 -13l-2 -12c1,4 2,8 2,12zm-2 -12l-3 -13c1,4 2,9 3,13zm-3 -13l-4 -12c1,4 3,8 4,12zm-4 -12l-4 -12c2,4 3,8 4,12zm-4 -12l-4 -12c1,4 3,8 4,12zm-4 -12l-5 -12c1,4 3,8 5,12zm-5 -12l-6 -11c2,4 4,8 6,11zm-6 -11l-6 -11c2,3 4,7 6,11zm-6 -11l-6 -11c2,3 4,7 6,11zm-6 -11l-7 -11c2,4 5,7 7,11zm-7 -11l-7 -10c2,3 5,7 7,10zm-7 -10l-8 -11c3,4 5,7 8,11zm-8 -11l-8 -9c3,3 6,6 8,9zm-8 -9l-8 -10c3,3 6,6 8,10zm-8 -10l-9 -9c3,3 6,6 9,9zm-9 -9l-9 -9c3,3 6,6 9,9zm-9 -9l-10 -8c4,2 7,5 10,8zm-10 -8l-10 -9c4,3 7,6 10,9zm-10 -9l-10 -7c4,2 7,5 10,7zm-10 -7l-11 -8c4,3 8,5 11,8zm-11 -8l-11 -7c4,3 8,5 11,7zm-11 -7l-11 -6c4,2 8,4 11,6zm-11 -6l-11 -6c3,2 7,4 11,6zm-11 -6l-12 -6c4,2 8,4 12,6zm-12 -6l-13 -5c4,2 9,4 13,5zm-13 -5l-12 -4c4,1 8,3 12,4zm-12 -4l-13 -5c4,2 8,3 13,5zm-13 -5l-13 -3c4,1 9,2 13,3zm-13 -3l-16 -4c5,1 10,3 16,4zm-16 -4l-16 -2c5,0 11,1 16,2zm-16 -2l-16 -2c6,0 11,1 16,2zm-16 -2l-15 -1c5,0 10,0 15,1zm-15 -1l-16 -1c5,0 10,0 16,1zm-16 -1l-16 1c5,-1 11,-1 16,-1zm-16 1l-15 1c5,-1 10,-1 15,-1zm-15 1l-15 2c5,-1 10,-1 15,-2zm-15 2l-15 3c5,-1 10,-2 15,-3zm-15 3l-15 3c5,-1 10,-2 15,-3zm-15 3l-15 4c5,-1 10,-3 15,-4zm-15 4l-14 5c4,-2 9,-3 14,-5zm-14 5l-15 6c5,-2 10,-4 15,-6zm-15 6l-13 6c4,-2 9,-4 13,-6zm-13 6l-14 7c5,-3 9,-5 14,-7zm-14 7l-13 7c4,-2 9,-5 13,-7zm-13 7l-13 8c4,-3 9,-5 13,-8zm-13 8l-12 9c4,-3 8,-6 12,-9zm-12 9l-12 9c4,-3 8,-6 12,-9zm-12 9l-12 10c4,-3 8,-7 12,-10z"/>
    <path class="fil2" d="M805 180c-222,-55 -448,79 -504,302 -51,206 61,414 254,488l0 0 35 268 22 -85 40 -159 15 -62 4 -15 5 -20c-16,-1 -33,-4 -49,-8 -169,-43 -272,-214 -229,-383 42,-169 214,-272 383,-229 141,35 236,162 238,301 0,3 1,4 4,4l92 0c3,0 4,0 4,-4 0,-184 -127,-351 -314,-398zm-99 138c-146,0 -265,118 -265,264 0,147 119,265 265,265 146,0 264,-118 264,-265 0,-146 -118,-264 -264,-264zm36 200l82 48 0 0c3,1 5,4 7,7 5,9 2,21 -7,26l-82 47 -80 47c-4,2 -7,3 -12,3 -10,0 -19,-8 -19,-19l0 -95 0 -94 0 0c0,-4 1,-7 3,-10 5,-9 17,-12 26,-7l81 47c0,0 1,0 1,0z"/>
   </g>
   <g>
    <path class="fil3" d="M2916 639c-16,9 -39,14 -69,14 -35,0 -63,-11 -85,-32 -22,-21 -32,-49 -32,-82 0,-39 11,-70 34,-92 24,-22 55,-34 94,-34 27,0 46,4 58,11l0 60c-14,-11 -31,-17 -49,-17 -20,0 -36,6 -48,18 -12,12 -18,28 -18,49 0,20 6,36 17,48 11,11 27,17 47,17 17,0 34,-6 51,-17l0 57z"/>
    <path class="fil3" d="M2665 570c0,10 2,17 7,22 4,5 11,7 18,7 4,0 8,0 12,-1 4,-1 8,-1 12,-2l0 49c-9,3 -18,5 -27,6 -10,1 -20,2 -30,2 -9,0 -18,-1 -25,-5 -8,-3 -15,-7 -20,-13 -5,-6 -10,-13 -13,-21 -3,-9 -4,-18 -4,-29l0 -166 70 0 0 151z"/>
    <path class="fil3" d="M2631 383c-12,0 -22,-4 -29,-11 -8,-7 -12,-15 -12,-26 0,-10 4,-19 12,-26 7,-6 17,-10 29,-10 12,0 22,4 29,10 8,7 11,16 11,26 0,11 -3,20 -11,27 -7,6 -17,10 -29,10z"/>
    <path class="fil3" d="M2381 641l0 -57c11,7 23,12 35,16 11,3 22,5 32,5 13,0 23,-2 30,-5 7,-4 11,-9 11,-16 0,-4 -2,-8 -5,-11 -4,-3 -8,-6 -13,-8 -5,-2 -11,-4 -17,-6 -6,-2 -12,-4 -17,-6 -9,-3 -17,-7 -24,-11 -7,-4 -13,-8 -18,-14 -4,-5 -8,-11 -10,-18 -3,-7 -4,-15 -4,-24 0,-13 3,-24 8,-33 6,-9 13,-17 23,-23 9,-5 19,-10 31,-12 12,-3 25,-5 38,-5 10,0 20,1 31,3 10,1 20,4 30,7l0 54c-9,-5 -18,-9 -28,-12 -11,-2 -21,-4 -30,-4 -5,0 -9,1 -13,2 -4,0 -8,2 -11,3 -3,2 -6,4 -8,6 -1,3 -2,5 -2,9 0,4 1,7 4,10 2,3 6,6 10,8 5,2 9,4 15,6 5,1 10,3 15,5 10,3 18,7 26,11 7,4 14,8 19,13 6,5 10,12 13,19 3,7 4,15 4,24 0,14 -3,26 -9,35 -6,10 -13,18 -23,24 -10,6 -21,10 -34,13 -12,2 -26,4 -39,4 -25,0 -49,-4 -70,-12z"/>
    <path class="fil3" d="M2336 647l-70 0 0 -35 -1 0c-17,27 -40,41 -70,41 -53,0 -79,-32 -79,-96l0 -138 70 0 0 131c0,33 13,49 39,49 12,0 22,-5 30,-13 8,-9 11,-21 11,-36l0 -131 70 0 0 228z"/>
    <path class="fil3" d="M2063 647l-64 0 0 -191c0,-21 0,-44 2,-68l-2 0c-1,4 -2,9 -3,14 -1,5 -3,9 -4,13 -1,4 -3,8 -4,12 -1,3 -2,6 -3,8l-61 116 -50 0 -59 -117c-1,-1 -1,-3 -2,-6 -1,-3 -3,-6 -4,-10 -1,-5 -2,-9 -3,-14 -2,-5 -3,-11 -4,-16l-2 0c1,13 2,26 3,38 0,12 0,22 0,30l0 191 -65 0 0 -319 89 0 56 111c2,3 3,7 5,11 2,4 3,8 5,12 1,4 3,8 4,12 1,3 2,7 3,10l1 0c1,-3 2,-7 3,-11 1,-4 2,-8 3,-12 1,-4 3,-8 4,-12 1,-4 3,-8 4,-11l58 -110 90 0 0 319z"/>
    <path class="fil3" d="M4334 647l-70 0 0 -127c0,-35 -13,-53 -38,-53 -12,0 -23,5 -30,14 -8,10 -12,22 -12,36l0 130 -71 0 0 -228 71 0 0 36 1 0c17,-28 41,-42 73,-42 51,0 76,32 76,94l0 140z"/>
    <path class="fil3" d="M3945 467c-17,0 -30,6 -39,17 -9,12 -14,28 -14,49 0,44 18,66 53,66 34,0 51,-23 51,-68 0,-42 -17,-64 -51,-64zm-2 186c-38,0 -68,-11 -90,-32 -21,-21 -32,-50 -32,-87 0,-38 11,-67 33,-89 23,-21 54,-32 92,-32 38,0 68,11 89,32 22,22 33,50 33,85 0,38 -11,68 -34,90 -22,22 -52,33 -91,33z"/>
    <path class="fil3" d="M3756 570c0,10 2,17 7,22 4,5 11,7 18,7 4,0 8,0 12,-1 4,-1 8,-1 12,-2l0 49c-9,3 -18,5 -27,6 -10,1 -20,2 -30,2 -9,0 -18,-1 -25,-5 -8,-3 -15,-7 -20,-13 -5,-6 -10,-13 -13,-21 -3,-9 -4,-18 -4,-29l0 -166 70 0 0 151z"/>
    <path class="fil3" d="M3722 383c-12,0 -22,-4 -29,-11 -8,-7 -12,-15 -12,-26 0,-10 4,-19 12,-26 7,-6 17,-10 29,-10 12,0 22,4 29,10 8,7 11,16 11,26 0,11 -3,20 -11,27 -7,6 -17,10 -29,10z"/>
    <path class="fil3" d="M3634 647l-71 0 0 -127c0,-35 -12,-53 -37,-53 -13,0 -23,5 -31,14 -7,10 -11,22 -11,36l0 130 -71 0 0 -228 71 0 0 36 0 0c17,-28 42,-42 74,-42 50,0 76,32 76,94l0 140z"/>
    <path class="fil3" d="M3356 509c0,96 -45,144 -134,144 -87,0 -131,-47 -131,-141l0 -184 73 0 0 185c0,52 20,78 60,78 40,0 60,-25 60,-75l0 -188 72 0 0 181z"/>
    <path class="fil3" d="M3090 1090l-70 0 0 -130c0,-34 -12,-50 -37,-50 -12,0 -22,4 -30,14 -8,9 -12,21 -12,35l0 131 -70 0 0 -338 70 0 0 143 1 0c18,-26 41,-39 71,-39 51,0 77,31 77,93l0 141z"/>
    <path class="fil3" d="M2828 1081c-16,10 -39,14 -69,14 -35,0 -64,-10 -85,-32 -22,-21 -33,-48 -33,-82 0,-39 12,-69 35,-92 23,-22 54,-33 93,-33 27,0 47,3 59,10l0 60c-15,-11 -31,-16 -49,-16 -21,0 -37,6 -49,17 -11,12 -17,28 -17,49 0,20 5,36 17,48 11,11 27,17 46,17 18,0 35,-5 52,-16l0 56z"/>
    <path class="fil3" d="M2624 925c-9,-5 -19,-7 -30,-7 -15,0 -27,6 -36,17 -8,11 -13,26 -13,46l0 109 -70 0 0 -229 70 0 0 43 1 0c11,-31 31,-47 60,-47 8,0 14,1 18,3l0 65z"/>
    <path class="fil3" d="M2358 997l0 -16 -41 6c-23,3 -35,13 -35,31 0,8 3,14 9,20 5,5 13,7 22,7 14,0 24,-4 33,-14 8,-9 12,-20 12,-34zm66 93l-66 0 0 -33 -1 0c-15,25 -38,38 -68,38 -22,0 -40,-6 -53,-19 -12,-12 -19,-29 -19,-50 0,-44 27,-70 79,-77l62 -8c0,-25 -13,-37 -40,-37 -28,0 -54,8 -78,24l0 -53c10,-5 23,-10 40,-14 17,-3 33,-5 47,-5 65,0 97,32 97,97l0 137z"/>
    <path class="fil3" d="M2127 952c0,-32 -13,-49 -40,-49 -11,0 -21,5 -29,14 -8,10 -13,21 -15,35l84 0zm65 44l-148 0c2,33 23,49 62,49 25,0 47,-6 66,-18l0 51c-21,11 -48,17 -82,17 -37,0 -65,-10 -86,-31 -20,-20 -30,-48 -30,-85 0,-38 11,-68 33,-90 22,-22 49,-33 81,-33 33,0 59,10 77,29 18,20 27,47 27,81l0 30z"/>
    <path class="fil3" d="M1724 1077l0 -71c13,11 27,19 42,24 15,6 30,8 46,8 9,0 17,0 23,-2 7,-2 13,-4 17,-7 5,-3 8,-6 11,-10 2,-4 3,-8 3,-13 0,-6 -2,-12 -5,-17 -4,-4 -9,-9 -15,-13 -6,-4 -14,-8 -22,-12 -8,-4 -18,-8 -27,-12 -25,-10 -44,-23 -56,-38 -13,-15 -19,-33 -19,-54 0,-17 4,-31 10,-43 7,-12 16,-22 28,-30 11,-8 25,-13 40,-17 15,-4 31,-6 48,-6 17,0 31,2 44,4 13,1 25,5 36,9l0 66c-6,-3 -12,-7 -18,-9 -6,-3 -13,-6 -19,-7 -7,-2 -14,-4 -20,-5 -7,0 -13,-1 -19,-1 -8,0 -16,1 -22,2 -7,2 -13,4 -17,7 -5,3 -9,6 -11,10 -3,4 -4,9 -4,13 0,6 2,11 4,15 3,4 7,8 12,12 6,4 12,7 19,11 8,4 16,7 26,11 12,6 24,11 34,17 10,6 19,13 26,21 7,7 13,16 17,26 4,9 6,21 6,34 0,18 -4,32 -10,45 -7,12 -16,22 -28,29 -12,8 -25,13 -40,16 -16,4 -32,5 -49,5 -18,0 -34,-1 -50,-4 -16,-3 -30,-8 -41,-14z"/>
   </g>
  </g>
 </g>
</svg>
