<?xml version="1.0" encoding="UTF-8"?>
<!DOCTYPE svg PUBLIC "-//W3C//DTD SVG 1.1//EN" "http://www.w3.org/Graphics/SVG/1.1/DTD/svg11.dtd">
<!-- Creator: CorelDRAW X7 -->
<svg xmlns="http://www.w3.org/2000/svg" xml:space="preserve" width="86.6986mm" height="28.1092mm" version="1.1" style="shape-rendering:geometricPrecision; text-rendering:geometricPrecision; image-rendering:optimizeQuality; fill-rule:evenodd; clip-rule:evenodd"
viewBox="0 0 8670 2811"
 xmlns:xlink="http://www.w3.org/1999/xlink">
 <defs>
  <style type="text/css">
   <![CDATA[
    .fil2 {fill:#FEFEFE}
    .fil3 {fill:#497EB4;fill-rule:nonzero}
    .fil0 {fill:url(#id0)}
    .fil1 {fill:url(#id1)}
   ]]>
  </style>
  <linearGradient id="id0" gradientUnits="userSpaceOnUse" x1="2642.58" y1="2698.9" x2="171.16" y2="112.01">
   <stop offset="0" style="stop-opacity:1; stop-color:#015A96"/>
   <stop offset="1" style="stop-opacity:1; stop-color:#8CBDE6"/>
  </linearGradient>
  <linearGradient id="id1" gradientUnits="userSpaceOnUse" x1="2155.74" y1="2658.38" x2="82.39" y2="488.19">
   <stop offset="0" style="stop-opacity:1; stop-color:#044E80"/>
   <stop offset="1" style="stop-opacity:1; stop-color:#65A8DC"/>
  </linearGradient>
 </defs>
 <g id="Layer_x0020_1">
  <metadata id="CorelCorpID_0Corel-Layer"/>
  <g id="_1025243216">
   <g>
    <rect class="fil0" x="1" width="2812" height="2812" rx="410" ry="410"/>
    <path class="fil1" d="M787 2811l-376 0c-225,0 -410,-184 -410,-410l0 -1126 852 -727c198,-178 478,-257 756,-187 374,94 628,428 628,796 0,4 -1,5 -2,7l-923 788 -10 37 -79 317 -43 170 -393 335zm1251 -1655l-1 -27c1,9 1,18 1,27zm-1 -27l-2 -25c1,8 2,17 2,25zm-2 -25l-3 -26c1,8 2,17 3,26zm-3 -26l-4 -25c1,8 3,16 4,25zm-4 -25l-5 -26c2,9 3,17 5,26zm-5 -26l-6 -24c2,8 4,16 6,24zm-6 -24l-7 -25c2,8 5,16 7,25zm-7 -25l-8 -24c2,8 5,16 8,24zm-8 -24l-9 -24c3,8 6,16 9,24zm-9 -24l-10 -23c3,7 6,15 10,23zm-10 -23l-11 -23c3,7 7,15 11,23zm-11 -23l-12 -23c4,8 8,15 12,23zm-12 -23l-13 -22c5,8 9,15 13,22zm-13 -22l-13 -21c4,7 9,14 13,21zm-13 -21l-15 -21c5,7 10,14 15,21zm-15 -21l-15 -20c5,6 10,13 15,20zm-15 -20l-16 -20c6,6 11,13 16,20zm-16 -20l-17 -19c6,6 12,13 17,19zm-17 -19l-17 -18c6,6 11,12 17,18zm-17 -18l-19 -18c6,6 13,12 19,18zm-19 -18l-19 -17c7,5 13,11 19,17zm-19 -17l-20 -16c7,5 13,10 20,16zm-20 -16l-20 -16c7,5 13,10 20,16zm-20 -16l-22 -15c7,5 15,10 22,15zm-22 -15l-22 -13c8,4 15,9 22,13zm-22 -13l-22 -13c7,4 15,8 22,13zm-22 -13l-24 -12c8,3 16,7 24,12zm-24 -12l-24 -12c8,4 16,8 24,12zm-24 -12l-24 -10c8,3 16,7 24,10zm-24 -10l-25 -9c8,3 17,6 25,9zm-25 -9l-26 -8c9,2 17,5 26,8zm-26 -8l-26 -7c9,2 17,4 26,7zm-26 -7l-32 -8c11,3 21,5 32,8zm-32 -8l-32 -5c11,2 22,3 32,5zm-32 -5l-31 -4c10,1 21,2 31,4zm-31 -4l-32 -2c11,0 21,1 32,2zm-32 -2l-31 -1c10,0 21,1 31,1zm-31 -1l-31 1c10,0 21,-1 31,-1zm-31 1l-31 3c10,-1 21,-2 31,-3zm-31 3l-31 4c11,-2 21,-3 31,-4zm-31 4l-30 5c10,-2 20,-4 30,-5zm-30 5l-29 7c9,-2 19,-5 29,-7zm-29 7l-30 8c10,-3 20,-5 30,-8zm-30 8l-29 10c10,-3 19,-7 29,-10zm-29 10l-28 11c9,-4 19,-8 28,-11zm-28 11l-28 12c9,-4 19,-8 28,-12zm-28 12l-27 14c9,-5 18,-9 27,-14zm-27 14l-26 15c9,-5 17,-10 26,-15zm-26 15l-26 16c9,-5 17,-11 26,-16zm-26 16l-24 18c8,-6 16,-12 24,-18zm-24 18l-24 18c7,-6 15,-12 24,-18zm-24 18l-24 20c8,-7 16,-14 24,-20z"/>
    <path class="fil2" d="M1609 361c-444,-112 -895,158 -1007,602 -104,412 120,830 508,978l-1 0 71 535 43 -170 79 -317 32 -125 7 -30 10 -40c-32,-3 -65,-8 -98,-16 -338,-85 -543,-428 -458,-766 85,-338 428,-543 766,-458 283,71 473,323 477,602 0,5 1,9 7,9l184 0c6,0 8,-1 8,-8 0,-368 -254,-702 -628,-796zm-198 274c-292,0 -529,237 -529,530 0,292 237,529 529,529 292,0 529,-237 529,-529 0,-293 -237,-530 -529,-530zm72 402l164 94 0 0c6,4 11,8 14,15 11,18 5,41 -14,52l-164 94 -161 93c-6,5 -14,7 -22,7 -21,0 -38,-17 -38,-38l0 -189 0 -190 0 0c0,-6 2,-13 5,-19 11,-18 34,-25 52,-14l162 94c1,0 2,0 2,1z"/>
   </g>
   <g>
    <path class="fil3" d="M5833 1278c-32,18 -78,28 -138,28 -70,0 -127,-22 -170,-64 -44,-43 -65,-97 -65,-165 0,-77 23,-138 69,-183 47,-45 109,-67 187,-67 54,0 93,7 117,21l0 120c-30,-22 -62,-33 -99,-33 -40,0 -72,11 -96,35 -23,24 -35,56 -35,98 0,40 11,72 34,95 22,23 53,35 93,35 35,0 69,-11 103,-33l0 113z"/>
    <path class="fil3" d="M5330 1140c0,19 5,34 14,44 9,10 22,15 37,15 8,0 15,-1 23,-3 8,-1 16,-3 23,-4l0 99c-17,4 -34,8 -53,11 -19,3 -39,4 -59,4 -19,0 -36,-3 -52,-9 -15,-6 -28,-15 -39,-27 -11,-12 -19,-26 -25,-43 -6,-17 -9,-35 -9,-56l0 -333 140 0 0 302z"/>
    <path class="fil3" d="M5262 765c-24,0 -43,-7 -59,-21 -15,-14 -22,-31 -22,-52 0,-21 7,-38 22,-51 16,-14 35,-20 59,-20 24,0 44,6 59,20 15,13 22,30 22,51 0,22 -7,39 -22,53 -15,14 -35,20 -59,20z"/>
    <path class="fil3" d="M4762 1282l0 -114c23,14 46,25 69,31 23,7 45,11 66,11 25,0 44,-4 59,-11 14,-6 21,-17 21,-31 0,-9 -3,-16 -10,-22 -6,-6 -14,-11 -25,-16 -10,-4 -21,-8 -33,-12 -13,-3 -24,-7 -36,-12 -18,-7 -34,-14 -48,-22 -13,-8 -25,-17 -34,-27 -10,-11 -17,-23 -22,-36 -5,-14 -7,-30 -7,-49 0,-26 5,-48 17,-66 11,-18 26,-34 44,-45 19,-12 40,-21 64,-26 24,-6 49,-8 75,-8 20,0 40,1 61,4 21,3 42,8 62,14l0 109c-18,-11 -37,-19 -58,-24 -20,-5 -40,-7 -60,-7 -9,0 -17,0 -26,2 -8,2 -15,4 -21,7 -7,3 -11,7 -15,12 -4,5 -5,11 -5,17 0,8 2,15 8,21 5,6 12,11 21,16 8,4 18,8 28,11 11,4 21,7 32,11 19,6 36,13 51,21 15,8 28,17 39,27 11,11 19,23 25,37 6,14 8,31 8,50 0,27 -5,50 -17,69 -12,19 -27,35 -47,47 -19,12 -42,21 -67,26 -26,6 -52,9 -80,9 -50,0 -96,-8 -139,-24z"/>
    <path class="fil3" d="M4673 1294l-140 0 0 -69 -3 0c-34,54 -81,81 -139,81 -106,0 -159,-65 -159,-193l0 -275 141 0 0 263c0,64 25,97 76,97 26,0 46,-9 61,-27 15,-18 23,-42 23,-72l0 -261 140 0 0 456z"/>
    <path class="fil3" d="M4126 1294l-129 0 0 -382c0,-42 2,-87 5,-137l-3 0c-2,9 -5,19 -7,28 -3,10 -6,19 -8,27 -3,9 -6,16 -8,23 -3,7 -5,12 -7,16l-121 234 -101 0 -117 -234c-1,-3 -3,-7 -5,-13 -2,-6 -4,-13 -7,-21 -2,-8 -5,-17 -7,-28 -3,-10 -5,-21 -7,-32l-3 0c2,28 3,53 4,77 1,24 1,43 1,59l0 383 -130 0 0 -639 177 0 113 222c3,7 7,15 10,23 3,8 6,16 9,24 4,8 6,16 9,23 2,8 4,15 6,21l2 0c1,-6 3,-13 5,-22 3,-8 5,-16 7,-24 3,-9 5,-17 8,-25 2,-8 5,-15 8,-21l116 -221 180 0 0 639z"/>
    <path class="fil3" d="M8669 1294l-141 0 0 -253c0,-71 -25,-106 -76,-106 -24,0 -44,9 -60,28 -15,18 -23,42 -23,71l0 260 -141 0 0 -456 141 0 0 72 1 0c34,-56 83,-83 147,-83 101,0 152,62 152,188l0 279z"/>
    <path class="fil3" d="M7891 935c-34,0 -60,11 -78,34 -18,23 -28,55 -28,97 0,88 36,132 106,132 68,0 102,-45 102,-135 0,-86 -34,-128 -102,-128zm-4 371c-76,0 -136,-22 -180,-64 -43,-43 -65,-101 -65,-174 0,-76 23,-135 68,-177 45,-43 106,-64 183,-64 76,0 135,21 179,64 43,42 64,99 64,169 0,76 -22,136 -66,180 -45,44 -106,66 -183,66z"/>
    <path class="fil3" d="M7513 1140c0,19 4,34 14,44 9,10 21,15 37,15 7,0 15,-1 23,-3 7,-1 15,-3 23,-4l0 99c-17,4 -35,8 -54,11 -19,3 -38,4 -59,4 -19,0 -36,-3 -51,-9 -15,-6 -28,-15 -39,-27 -11,-12 -19,-26 -25,-43 -6,-17 -9,-35 -9,-56l0 -333 140 0 0 302z"/>
    <path class="fil3" d="M7445 765c-24,0 -44,-7 -59,-21 -15,-14 -23,-31 -23,-52 0,-21 8,-38 23,-51 15,-14 35,-20 59,-20 24,0 43,6 58,20 15,13 23,30 23,51 0,22 -8,39 -23,53 -15,14 -34,20 -58,20z"/>
    <path class="fil3" d="M7268 1294l-140 0 0 -253c0,-71 -26,-106 -76,-106 -25,0 -45,9 -60,28 -16,18 -24,42 -24,71l0 260 -141 0 0 -456 141 0 0 72 2 0c33,-56 82,-83 146,-83 102,0 152,62 152,188l0 279z"/>
    <path class="fil3" d="M6712 1018c0,192 -89,288 -268,288 -174,0 -261,-94 -261,-282l0 -369 145 0 0 371c0,103 40,155 121,155 80,0 119,-50 119,-150l0 -376 144 0 0 363z"/>
    <path class="fil3" d="M6181 2179l-141 0 0 -259c0,-67 -24,-101 -73,-101 -25,0 -45,10 -60,28 -16,19 -24,43 -24,72l0 260 -141 0 0 -676 141 0 0 287 2 0c35,-52 81,-79 141,-79 103,0 155,63 155,188l0 280z"/>
    <path class="fil3" d="M5656 2163c-32,18 -78,27 -138,27 -70,0 -127,-21 -170,-63 -44,-43 -65,-98 -65,-165 0,-78 23,-139 69,-183 47,-45 109,-68 187,-68 54,0 93,8 117,22l0 119c-30,-22 -62,-33 -99,-33 -40,0 -72,12 -96,36 -23,23 -35,56 -35,98 0,40 11,72 34,95 22,23 53,34 93,34 35,0 69,-10 103,-33l0 114z"/>
    <path class="fil3" d="M5248 1850c-17,-10 -37,-14 -60,-14 -30,0 -54,11 -72,34 -17,22 -25,52 -25,91l0 218 -141 0 0 -456 141 0 0 84 1 0c23,-62 63,-92 121,-92 15,0 26,1 35,5l0 130z"/>
    <path class="fil3" d="M4716 1994l0 -31 -83 11c-45,6 -68,26 -68,62 0,16 5,29 16,39 12,10 27,16 46,16 26,0 48,-10 64,-28 17,-18 25,-41 25,-69zm133 185l-133 0 0 -65 -2 0c-31,51 -76,76 -136,76 -45,0 -80,-12 -105,-37 -25,-25 -38,-59 -38,-101 0,-88 52,-140 157,-153l124 -17c0,-50 -27,-75 -81,-75 -54,0 -106,17 -155,49l0 -106c20,-10 46,-19 81,-27 33,-8 65,-12 93,-12 130,0 195,65 195,195l0 273z"/>
    <path class="fil3" d="M4254 1905c0,-66 -26,-99 -79,-99 -23,0 -42,10 -59,28 -16,19 -26,43 -30,71l168 0zm131 86l-298 0c5,66 47,100 125,100 51,0 95,-12 133,-36l0 102c-42,22 -97,33 -165,33 -73,0 -131,-20 -171,-61 -41,-41 -62,-98 -62,-171 0,-76 22,-136 67,-180 44,-44 98,-67 162,-67 66,0 118,20 154,60 37,39 55,93 55,161l0 59z"/>
    <path class="fil3" d="M3447 2155l0 -143c26,22 54,38 84,49 31,11 61,16 92,16 18,0 34,-2 48,-5 13,-3 25,-7 34,-13 9,-6 15,-13 20,-21 4,-8 7,-16 7,-26 0,-12 -4,-23 -11,-33 -7,-10 -17,-19 -29,-27 -13,-9 -27,-17 -44,-24 -17,-8 -35,-16 -55,-24 -50,-21 -87,-46 -112,-76 -24,-30 -37,-66 -37,-109 0,-33 7,-62 20,-86 14,-24 32,-43 55,-59 23,-15 50,-27 80,-34 30,-7 63,-11 97,-11 33,0 62,2 88,6 26,4 49,10 71,19l0 133c-11,-7 -22,-14 -35,-20 -12,-5 -26,-10 -39,-14 -13,-3 -27,-6 -40,-8 -13,-2 -26,-3 -37,-3 -17,0 -32,2 -45,5 -13,3 -25,8 -34,13 -9,6 -16,13 -21,20 -5,8 -8,17 -8,27 0,11 3,20 8,29 6,8 14,16 25,24 10,7 23,15 38,22 14,7 31,15 50,23 26,10 48,22 69,34 20,12 38,25 52,41 15,15 26,32 34,52 7,19 11,42 11,68 0,35 -6,65 -20,89 -14,25 -32,44 -55,59 -23,15 -50,26 -81,33 -31,6 -63,9 -98,9 -35,0 -68,-2 -100,-8 -31,-6 -59,-15 -82,-27z"/>
   </g>
  </g>
 </g>
</svg>
