<?xml version="1.0" encoding="UTF-8"?>
<!DOCTYPE svg PUBLIC "-//W3C//DTD SVG 1.1//EN" "http://www.w3.org/Graphics/SVG/1.1/DTD/svg11.dtd">
<!-- Creator: CorelDRAW X7 -->
<svg xmlns="http://www.w3.org/2000/svg" xml:space="preserve" width="16.8486mm" height="21.6746mm" version="1.1" style="shape-rendering:geometricPrecision; text-rendering:geometricPrecision; image-rendering:optimizeQuality; fill-rule:evenodd; clip-rule:evenodd"
viewBox="0 0 1685 2167"
 xmlns:xlink="http://www.w3.org/1999/xlink">
 <defs>
  <style type="text/css">
   <![CDATA[
    .fil0 {fill:#1C68A3}
   ]]>
  </style>
 </defs>
 <g id="Layer_x0020_1">
  <metadata id="CorelCorpID_0Corel-Layer"/>
  <path class="fil0" d="M1047 26c-450,-114 -907,160 -1020,610 -105,417 122,840 514,990l0 0 72 541 43 -171 81 -321 32 -127 7 -30 10 -41c-33,-3 -66,-8 -99,-17 -343,-86 -550,-433 -464,-775 86,-342 433,-550 775,-464 287,72 479,327 484,610 0,5 1,9 7,9l186 0c6,0 8,-1 8,-8 0,-373 -257,-711 -636,-806zm-200 278c-297,0 -536,240 -536,536 0,296 239,536 536,536 296,0 535,-240 535,-536 0,-296 -239,-536 -535,-536zm73 406l166 96 0 0c6,4 11,8 14,14 11,19 4,43 -14,53l-166 96 -163 94c-7,5 -14,7 -23,7 -21,0 -39,-17 -39,-38l0 -192 0 -192 1 0c0,-7 1,-13 5,-19 10,-19 34,-25 53,-15l164 95c0,1 1,1 2,1z"/>
 </g>
</svg>
