<?xml version="1.0" encoding="UTF-8"?>
<!DOCTYPE svg PUBLIC "-//W3C//DTD SVG 1.1//EN" "http://www.w3.org/Graphics/SVG/1.1/DTD/svg11.dtd">
<!-- Creator: CorelDRAW X7 -->
<svg xmlns="http://www.w3.org/2000/svg" xml:space="preserve" width="33.6126mm" height="43.3492mm" version="1.1" style="shape-rendering:geometricPrecision; text-rendering:geometricPrecision; image-rendering:optimizeQuality; fill-rule:evenodd; clip-rule:evenodd"
viewBox="0 0 3361 4335"
 xmlns:xlink="http://www.w3.org/1999/xlink">
 <defs>
  <style type="text/css">
   <![CDATA[
    .fil0 {fill:#1C68A3}
   ]]>
  </style>
 </defs>
 <g id="Layer_x0020_1">
  <metadata id="CorelCorpID_0Corel-Layer"/>
  <path class="fil0" d="M2091 51c-901,-226 -1814,320 -2041,1221 -209,834 244,1679 1029,1979l-1 1 143 1083 86 -343 162 -643 64 -254 15 -60 20 -80c-66,-6 -132,-17 -199,-34 -684,-172 -1100,-867 -928,-1551 172,-685 867,-1100 1551,-928 574,144 959,655 967,1219 0,12 3,19 14,19l373 0c11,0 16,-1 16,-16 0,-746 -514,-1422 -1271,-1613zm-402 557c-592,0 -1072,480 -1072,1072 0,592 480,1072 1072,1072 592,0 1072,-480 1072,-1072 0,-592 -480,-1072 -1072,-1072zm147 813l332 191 0 1c11,6 21,16 28,28 21,37 9,84 -29,106l-332 191 -326 189c-12,9 -28,14 -45,14 -43,0 -77,-35 -77,-78l0 -383 0 -384 0 0c0,-13 3,-26 10,-39 22,-37 69,-49 106,-28l328 189c2,1 3,2 5,3z"/>
 </g>
</svg>
