<?xml version="1.0" encoding="UTF-8"?>
<!DOCTYPE svg PUBLIC "-//W3C//DTD SVG 1.1//EN" "http://www.w3.org/Graphics/SVG/1.1/DTD/svg11.dtd">
<!-- Creator: CorelDRAW X7 -->
<svg xmlns="http://www.w3.org/2000/svg" xml:space="preserve" width="43.3492mm" height="43.3492mm" version="1.1" style="shape-rendering:geometricPrecision; text-rendering:geometricPrecision; image-rendering:optimizeQuality; fill-rule:evenodd; clip-rule:evenodd"
viewBox="0 0 4335 4335"
 xmlns:xlink="http://www.w3.org/1999/xlink">
 <defs>
  <style type="text/css">
   <![CDATA[
    .fil2 {fill:#FEFEFE}
    .fil1 {fill:url(#id0)}
    .fil0 {fill:url(#id1)}
   ]]>
  </style>
  <linearGradient id="id0" gradientUnits="userSpaceOnUse" x1="3322.05" y1="4099.19" x2="125.39" y2="753.21">
   <stop offset="0" style="stop-opacity:1; stop-color:#044E80"/>
   <stop offset="1" style="stop-opacity:1; stop-color:#65A8DC"/>
  </linearGradient>
  <linearGradient id="id1" gradientUnits="userSpaceOnUse" x1="4072.65" y1="4161.66" x2="262.25" y2="173.24">
   <stop offset="0" style="stop-opacity:1; stop-color:#015A96"/>
   <stop offset="1" style="stop-opacity:1; stop-color:#8CBDE6"/>
  </linearGradient>
 </defs>
 <g id="Layer_x0020_1">
  <metadata id="CorelCorpID_0Corel-Layer"/>
  <g id="_782995936">
   <rect class="fil0" width="4335" height="4335" rx="633" ry="633"/>
   <path class="fil1" d="M1212 4335l-579 0c-348,0 -633,-285 -633,-633l0 -1736 1313 -1121c306,-274 738,-396 1167,-289 576,145 967,660 967,1228 0,6 0,9 -2,10l-1424 1217 -15 56 -123 489 -65 261 -606 518zm1928 -2553l-1 -40c1,13 1,27 1,40zm-1 -40l-3 -40c1,13 2,27 3,40zm-3 -40l-5 -39c2,13 4,26 5,39zm-5 -39l-6 -40c2,13 4,26 6,40zm-6 -40l-8 -38c3,12 6,25 8,38zm-8 -38l-9 -39c3,13 6,26 9,39zm-9 -39l-11 -37c4,12 7,25 11,37zm-11 -37l-13 -38c5,13 9,25 13,38zm-13 -38l-14 -36c5,12 10,24 14,36zm-14 -36l-15 -36c5,11 11,23 15,36zm-15 -36l-17 -36c6,12 12,24 17,36zm-17 -36l-18 -34c6,11 12,23 18,34zm-18 -34l-19 -34c6,11 13,22 19,34zm-19 -34l-21 -33c7,11 14,22 21,33zm-21 -33l-23 -33c8,11 15,22 23,33zm-23 -33l-23 -31c8,10 16,21 23,31zm-23 -31l-25 -30c9,10 17,20 25,30zm-25 -30l-26 -30c9,10 18,20 26,30zm-26 -30l-27 -28c9,9 18,19 27,28zm-27 -28l-28 -27c9,9 19,18 28,27zm-28 -27l-30 -27c10,9 20,18 30,27zm-30 -27l-30 -25c10,9 20,17 30,25zm-30 -25l-32 -23c11,7 21,15 32,23zm-32 -23l-33 -23c11,7 22,15 33,23zm-33 -23l-34 -21c12,6 23,14 34,21zm-34 -21l-35 -20c12,6 24,13 35,20zm-35 -20l-36 -19c12,6 24,12 36,19zm-36 -19l-37 -17c13,5 25,11 37,17zm-37 -17l-37 -16c12,5 25,10 37,16zm-37 -16l-39 -14c13,4 26,9 39,14zm-39 -14l-40 -13c14,4 27,8 40,13zm-40 -13l-40 -11c13,3 27,7 40,11zm-40 -11l-49 -11c16,3 32,7 49,11zm-49 -11l-49 -8c16,2 33,5 49,8zm-49 -8l-49 -6c17,1 33,3 49,6zm-49 -6l-48 -4c16,1 32,2 48,4zm-48 -4l-49 -1c17,0 33,1 49,1zm-49 -1l-47 2c15,-1 31,-2 47,-2zm-47 2l-48 4c16,-2 32,-3 48,-4zm-48 4l-47 6c15,-3 31,-5 47,-6zm-47 6l-47 8c16,-3 31,-6 47,-8zm-47 8l-46 11c16,-4 31,-8 46,-11zm-46 11l-45 13c15,-5 30,-9 45,-13zm-45 13l-44 14c14,-5 29,-10 44,-14zm-44 14l-44 18c14,-7 29,-12 44,-18zm-44 18l-43 19c14,-7 29,-13 43,-19zm-43 19l-41 21c13,-8 27,-15 41,-21zm-41 21l-41 23c13,-8 27,-16 41,-23zm-41 23l-39 25c13,-9 26,-17 39,-25zm-39 25l-39 26c13,-9 26,-18 39,-26zm-39 26l-37 29c12,-10 25,-19 37,-29zm-37 29l-35 30c11,-10 23,-20 35,-30z"/>
   <path class="fil2" d="M2480 556c-686,-172 -1381,244 -1554,929 -159,636 186,1279 783,1507l0 1 109 824 65 -261 123 -489 49 -193 11 -46 16 -61c-50,-5 -101,-13 -152,-26 -521,-131 -837,-660 -706,-1181 131,-521 660,-837 1181,-706 436,110 729,499 736,928 0,9 2,14 10,14l284 0c9,0 12,-1 12,-12 0,-568 -391,-1083 -967,-1228zm-306 424c-451,0 -816,366 -816,816 0,451 365,816 816,816 450,0 816,-365 816,-816 0,-450 -366,-816 -816,-816zm111 619l253 146 0 0c9,5 16,12 22,22 16,28 6,64 -22,80l-253 146 -248 143c-10,7 -21,11 -34,11 -33,0 -59,-26 -59,-59l0 -292 0 -292 0 0c0,-10 2,-20 8,-29 16,-29 52,-38 80,-22l250 144c1,1 2,1 3,2z"/>
  </g>
 </g>
</svg>
