<?xml version="1.0" encoding="UTF-8"?>
<!DOCTYPE svg PUBLIC "-//W3C//DTD SVG 1.1//EN" "http://www.w3.org/Graphics/SVG/1.1/DTD/svg11.dtd">
<!-- Creator: CorelDRAW X7 -->
<svg xmlns="http://www.w3.org/2000/svg" xml:space="preserve" width="6.0958mm" height="6.0958mm" version="1.1" style="shape-rendering:geometricPrecision; text-rendering:geometricPrecision; image-rendering:optimizeQuality; fill-rule:evenodd; clip-rule:evenodd"
viewBox="0 0 610 610"
 xmlns:xlink="http://www.w3.org/1999/xlink">
 <defs>
  <style type="text/css">
   <![CDATA[
    .fil2 {fill:#FEFEFE}
    .fil0 {fill:url(#id0)}
    .fil1 {fill:url(#id1)}
   ]]>
  </style>
  <linearGradient id="id0" gradientUnits="userSpaceOnUse" x1="572.71" y1="585.23" x2="36.87" y2="24.35">
   <stop offset="0" style="stop-opacity:1; stop-color:#015A96"/>
   <stop offset="1" style="stop-opacity:1; stop-color:#8CBDE6"/>
  </linearGradient>
  <linearGradient id="id1" gradientUnits="userSpaceOnUse" x1="467.16" y1="576.44" x2="17.62" y2="105.91">
   <stop offset="0" style="stop-opacity:1; stop-color:#044E80"/>
   <stop offset="1" style="stop-opacity:1; stop-color:#65A8DC"/>
  </linearGradient>
 </defs>
 <g id="Layer_x0020_1">
  <metadata id="CorelCorpID_0Corel-Layer"/>
  <g id="_781141552">
   <rect class="fil0" width="610" height="610" rx="89" ry="89"/>
   <path class="fil1" d="M170 610l-81 0c-49,0 -89,-40 -89,-89l0 -245 185 -157c43,-39 103,-56 164,-41 81,21 136,93 136,173 0,1 0,1 -1,1l-200 171 -2 8 -17 69 -9 37 -86 73zm272 -359l-1 -6c1,2 1,4 1,6zm-1 -6l0 -6c0,2 0,4 0,6zm0 -6l-1 -5c1,2 1,3 1,5zm-1 -5l-1 -6c1,2 1,4 1,6zm-1 -6l-1 -5c1,2 1,3 1,5zm-1 -5l-1 -6c0,2 1,4 1,6zm-1 -6l-2 -5c1,2 2,4 2,5zm-2 -5l-1 -5c0,2 1,3 1,5zm-1 -5l-2 -5c0,1 1,3 2,5zm-2 -5l-2 -5c0,1 1,3 2,5zm-2 -5l-3 -5c1,1 2,3 3,5zm-3 -5l-2 -5c1,1 1,3 2,5zm-2 -5l-3 -5c1,2 2,3 3,5zm-3 -5l-3 -5c1,2 2,3 3,5zm-3 -5l-3 -4c1,1 2,3 3,4zm-3 -4l-3 -5c1,2 2,3 3,5zm-3 -5l-4 -4c1,2 2,3 4,4zm-4 -4l-4 -4c2,1 3,3 4,4zm-4 -4l-3 -4c1,1 2,3 3,4zm-3 -4l-4 -4c1,1 2,3 4,4zm-4 -4l-5 -3c2,1 3,2 5,3zm-5 -3l-4 -4c2,1 3,2 4,4zm-4 -4l-4 -3c1,1 3,2 4,3zm-4 -3l-5 -4c2,2 3,3 5,4zm-5 -4l-5 -3c2,1 4,2 5,3zm-5 -3l-5 -2c2,1 4,2 5,2zm-5 -2l-5 -3c2,1 4,2 5,3zm-5 -3l-5 -2c2,0 4,1 5,2zm-5 -2l-5 -3c2,1 3,2 5,3zm-5 -3l-6 -2c2,1 4,2 6,2zm-6 -2l-5 -1c2,0 4,1 5,1zm-5 -1l-6 -2c2,1 4,1 6,2zm-6 -2l-7 -1c3,0 5,1 7,1zm-7 -1l-7 -2c3,1 5,1 7,2zm-7 -2l-6 0c2,0 4,0 6,0zm-6 0l-7 -1c2,0 4,0 7,1zm-7 -1l-7 0c2,0 4,0 7,0zm-7 0l-7 0c2,0 5,0 7,0zm-7 0l-6 1c2,-1 4,-1 6,-1zm-6 1l-7 1c2,-1 4,-1 7,-1zm-7 1l-7 1c3,-1 5,-1 7,-1zm-7 1l-6 1c2,0 4,-1 6,-1zm-6 1l-6 2c2,-1 4,-1 6,-2zm-6 2l-7 2c2,-1 4,-1 7,-2zm-7 2l-6 2c2,0 4,-1 6,-2zm-6 2l-6 3c2,-1 4,-2 6,-3zm-6 3l-6 3c2,-1 4,-2 6,-3zm-6 3l-5 3c1,-1 3,-2 5,-3zm-5 3l-6 4c2,-1 4,-3 6,-4zm-6 4l-5 4c1,-2 3,-3 5,-4zm-5 4l-6 4c2,-2 4,-3 6,-4zm-6 4l-5 4c2,-2 4,-3 5,-4z"/>
   <path class="fil2" d="M349 78c-97,-24 -194,34 -219,131 -22,89 26,180 110,212l0 0 16 116 9 -37 17 -69 7 -27 2 -6 2 -9c-7,-1 -14,-2 -22,-4 -73,-18 -117,-92 -99,-166 19,-73 93,-117 166,-99 62,16 103,70 104,131 0,1 0,2 1,2l40 0c1,0 2,-1 2,-2 0,-80 -55,-152 -136,-173zm-43 60c-64,0 -115,51 -115,115 0,63 51,114 115,114 63,0 114,-51 114,-114 0,-64 -51,-115 -114,-115zm15 87l36 20 0 0c1,1 2,2 3,3 2,4 1,9 -3,12l-36 20 -35 20c-1,1 -3,2 -4,2 -5,0 -9,-4 -9,-8l0 -41 0 -42 0 0c0,-1 1,-2 1,-4 3,-4 8,-5 12,-3l35 21c0,0 0,0 0,0z"/>
  </g>
 </g>
</svg>
