<?xml version="1.0" encoding="UTF-8"?>
<!DOCTYPE svg PUBLIC "-//W3C//DTD SVG 1.1//EN" "http://www.w3.org/Graphics/SVG/1.1/DTD/svg11.dtd">
<!-- Creator: CorelDRAW X7 -->
<svg xmlns="http://www.w3.org/2000/svg" xml:space="preserve" width="43.3492mm" height="43.3492mm" version="1.1" style="shape-rendering:geometricPrecision; text-rendering:geometricPrecision; image-rendering:optimizeQuality; fill-rule:evenodd; clip-rule:evenodd"
viewBox="0 0 4335 4335"
 xmlns:xlink="http://www.w3.org/1999/xlink">
 <defs>
  <style type="text/css">
   <![CDATA[
    .fil0 {fill:#FEFEFE}
    .fil1 {fill:#1D1819}
   ]]>
  </style>
 </defs>
 <g id="Layer_x0020_1">
  <metadata id="CorelCorpID_0Corel-Layer"/>
  <rect class="fil0" width="4335" height="4335" rx="633" ry="633"/>
  <path class="fil1" d="M2480 556c-686,-172 -1381,244 -1554,929 -159,636 186,1279 783,1507l0 1 109 824 65 -261 123 -489 49 -193 11 -46 16 -61c-50,-5 -101,-13 -152,-26 -521,-131 -837,-660 -706,-1181 131,-521 660,-837 1181,-706 436,110 729,499 736,928 0,9 2,14 10,14l284 0c9,0 12,-1 12,-12 0,-568 -391,-1083 -967,-1228zm-306 424c-451,0 -816,366 -816,816 0,451 365,816 816,816 450,0 816,-365 816,-816 0,-450 -366,-816 -816,-816zm111 619l253 146 0 0c9,5 16,12 22,22 16,28 6,64 -22,80l-253 146 -248 143c-10,7 -21,11 -34,11 -33,0 -59,-26 -59,-59l0 -292 0 -292 0 0c0,-10 2,-20 8,-29 16,-29 52,-38 80,-22l250 144c1,1 2,1 3,2z"/>
 </g>
</svg>
